<?xml version="1.0" encoding="UTF-8"?>
<svg id="Layer_2" data-name="Layer 2" xmlns="http://www.w3.org/2000/svg" viewBox="0 0 156.46 138.81">
  <defs>
    <style>
      .cls-1 {
        fill: #d52027;
      }
    </style>
  </defs>
  <g id="Layer_1-2" data-name="Layer 1">
    <polygon class="cls-1" points="45.72 0 68.05 33.21 45.72 64.17 0 0 45.72 0"/>
    <path class="cls-1" d="M98.32,0L1.1,138.81h44.07l42.85-59.6s0,0-.01-.01l21.45-29.81,1.25-1.74c.24.16.48.34.72.52,5,3.52,8.27,9.32,8.27,15.9,0,10.75-8.71,19.47-19.47,19.47-1.9,0-3.73-.29-5.46-.79-.2-.04-.39-.07-.58-.11l-16.87,24.06,20.45,32.12h45.23l-19.89-27.82c23.96-4.96,72.16-68.03-24.79-110.99Z"/>
  </g>
</svg>